<?xml version="1.0" encoding="iso-8859-1"?>
<!-- Generator: Adobe Illustrator 19.0.0, SVG Export Plug-In . SVG Version: 6.00 Build 0)  -->
<svg version="1.1" id="Capa_1" xmlns="http://www.w3.org/2000/svg" xmlns:xlink="http://www.w3.org/1999/xlink" x="0px" y="0px"
	 viewBox="0 0 50.5 50.5" style="enable-background:new 0 0 50.5 50.5;" xml:space="preserve">
<g>
	<path d="M25.25,0c-4.217,0-8.392,1.061-12.073,3.069c-0.485,0.265-0.664,0.872-0.399,1.357c0.265,0.484,0.871,0.664,1.357,0.399
		C17.523,2.977,21.367,2,25.25,2C38.07,2,48.5,12.43,48.5,25.25S38.07,48.5,25.25,48.5S2,38.07,2,25.25
		c0-6.261,2.455-12.135,6.913-16.539C9.306,8.323,9.31,7.69,8.922,7.297C8.533,6.904,7.9,6.901,7.508,7.289
		C2.667,12.071,0,18.45,0,25.25C0,39.173,11.327,50.5,25.25,50.5c13.923,0,25.25-11.327,25.25-25.25C50.5,11.327,39.173,0,25.25,0z"
		/>
	<path d="M21.631,36V14.5c0-0.552-0.448-1-1-1c-0.552,0-1,0.448-1,1V36c0,0.552,0.448,1,1,1C21.183,37,21.631,36.552,21.631,36z"/>
	<path d="M30.869,36V14.5c0-0.552-0.448-1-1-1c-0.552,0-1,0.448-1,1V36c0,0.552,0.448,1,1,1C30.421,37,30.869,36.552,30.869,36z"/>
</g>
<g>
</g>
<g>
</g>
<g>
</g>
<g>
</g>
<g>
</g>
<g>
</g>
<g>
</g>
<g>
</g>
<g>
</g>
<g>
</g>
<g>
</g>
<g>
</g>
<g>
</g>
<g>
</g>
<g>
</g>
</svg>
