<svg width="31" height="24.5" xmlns="http://www.w3.org/2000/svg">

 <g>
  <title>background</title>
  <rect fill="none" id="canvas_background" height="26" width="26" y="-1" x="-1"/>
 </g>
 <g>
  <title>Layer 1</title>
  <path id="svg_1" d="m0,0l24,0l0,24l-24,0l0,-24z" fill="none"/>
  <path fill="#ffffff" id="svg_2" d="m11,9l2,0l0,-3l3,0l0,-2l-3,0l0,-3l-2,0l0,3l-3,0l0,2l3,0l0,3zm-4,9c-1.1,0 -1.99,0.9 -1.99,2s0.89,2 1.99,2s2,-0.9 2,-2s-0.9,-2 -2,-2zm10,0c-1.1,0 -1.99,0.9 -1.99,2s0.89,2 1.99,2s2,-0.9 2,-2s-0.9,-2 -2,-2zm-8.9,-5l7.45,0c0.75,0 1.41,-0.41 1.75,-1.03l3.86,-7.01l-1.74,-0.96l-3.87,7l-7.02,0l-4.26,-9l-3.27,0l0,2l2,0l3.6,7.59l-1.35,2.44c-0.73,1.34 0.23,2.97 1.75,2.97l12,0l0,-2l-12,0l1.1,-2z"/>
 </g>
</svg>
