<svg width="510" height="510" xmlns="http://www.w3.org/2000/svg">

 <g>
  <title>background</title>
  <rect fill="none" id="canvas_background" height="402" width="582" y="-1" x="-1"/>
 </g>
 <g>
  <title>Layer 1</title>
  <g id="svg_1">
   <g id="favorite-outline">
    <path fill="#ffffff" id="svg_2" d="m369.75,21.675c-43.35,0 -86.7,20.4 -114.75,53.55c-28.05,-33.15 -71.4,-53.55 -114.75,-53.55c-79.05,0 -140.25,61.2 -140.25,140.25c0,96.9 86.7,175.95 219.3,293.25l35.7,33.15l35.7,-33.15c130.05,-119.85 219.3,-198.9 219.3,-293.25c0,-79.05 -61.2,-140.25 -140.25,-140.25zm-112.2,397.8l-2.55,0l-2.55,-2.55c-122.4,-109.651 -201.45,-181.05 -201.45,-255c0,-51 38.25,-89.25 89.25,-89.25c38.25,0 76.5,25.5 91.8,61.2l48.45,0c12.75,-35.7 51,-61.2 89.25,-61.2c51,0 89.25,38.25 89.25,89.25c0,73.95 -79.05,145.349 -201.45,257.55z"/>
   </g>
  </g>
  <g id="svg_3"/>
  <g id="svg_4"/>
  <g id="svg_5"/>
  <g id="svg_6"/>
  <g id="svg_7"/>
  <g id="svg_8"/>
  <g id="svg_9"/>
  <g id="svg_10"/>
  <g id="svg_11"/>
  <g id="svg_12"/>
  <g id="svg_13"/>
  <g id="svg_14"/>
  <g id="svg_15"/>
  <g id="svg_16"/>
  <g id="svg_17"/>
 </g>
</svg>