<?xml version="1.0" encoding="iso-8859-1"?>
<!-- Generator: Adobe Illustrator 19.0.0, SVG Export Plug-In . SVG Version: 6.00 Build 0)  -->
<svg version="1.1" id="Capa_1" xmlns="http://www.w3.org/2000/svg" xmlns:xlink="http://www.w3.org/1999/xlink" x="0px" y="0px"
	 viewBox="0 0 294.997 294.997" style="enable-background:new 0 0 294.997 294.997;" xml:space="preserve">
<g>
	<path d="M213.499,147.518c0-3.313-2.687-6-6-6H58.069c-3.314,0-6,2.687-6,6s2.686,6,6,6h149.43
		C210.812,153.518,213.499,150.831,213.499,147.518z"/>
	<path d="M165.686,210.275c-2.344,2.343-2.344,6.142,0,8.485c1.171,1.171,2.707,1.757,4.242,1.757s3.071-0.586,4.242-1.757l67-67
		c2.344-2.343,2.344-6.142,0-8.485l-67-67c-2.342-2.343-6.143-2.343-8.484,0c-2.344,2.343-2.344,6.142,0,8.485l62.757,62.757
		L165.686,210.275z"/>
</g>
<g>
</g>
<g>
</g>
<g>
</g>
<g>
</g>
<g>
</g>
<g>
</g>
<g>
</g>
<g>
</g>
<g>
</g>
<g>
</g>
<g>
</g>
<g>
</g>
<g>
</g>
<g>
</g>
<g>
</g>
</svg>
